PathFileType	4	(X/Y/Z)	OpenSim_Sub05_CSBaseline_Gyro.trc
DataRate	CameraRate	NumFrames	NumMarkers	Units	OrigDataRate	OrigDataStartFrame	OrigNumFrames
100	100	27	8	m	100	6599	10557
Frame#	Time	torso_imu_offset_imu	pelvis_imu_offset_imu	tibia_r_imu_offset_imu	femur_r_imu_offset_imu	tibia_l_imu_offset_imu	femur_l_imu_offset_imu	toes_r_imu_offset_imu	toes_l_imu_offset_imu
				X1	Y1	Z1	X2	Y2	Z2	X3	Y3	Z3	X4	Y4	Z4	X5	Y5	Z5	X6	Y6	Z6	X7	Y7	Z7	X8		Y8	Z8	

6599	65.98000000	-0.47975586	-0.17098415	-0.25440497	0.12646732	0.16362336	0.19804933	-0.33903544	0.13962125	3.63286603	0.77163768	-0.01074099	0.54688599	-0.00066871	-0.05315048	0.64694029	-0.16873798	-0.22965403	0.57220360	0.03170678	4.07310077	0.53359929	-0.00603614	-0.09420321	0.05038451
6600	65.99000000	-0.48404223	-0.15868338	-0.22279697	0.13849138	0.20381871	0.18447240	-0.38109802	0.25799326	3.95092440	0.87896686	-0.08223238	0.43733220	-0.03845231	-0.04997442	0.66321683	-0.13802342	-0.20247483	0.61223476	0.00020458	4.33244605	0.75800951	0.02552398	-0.10874592	0.03570115
6601	66	-0.48450389	-0.14807059	-0.21520795	0.14606605	0.22498850	0.17071111	-0.31293130	0.26229068	4.25303809	0.93198923	-0.15885748	0.31001062	0.03143838	-0.05167236	0.67335481	-0.09405050	-0.17432777	0.62717679	-0.04704683	4.60910842	0.98215174	0.03573856	-0.11677157	0.03375186
6602	66.01000000	-0.48139875	-0.13693991	-0.19940244	0.14677976	0.23554784	0.16673590	-0.25373677	0.23495664	4.48339720	0.89752931	-0.24857415	0.14496389	0.09056392	-0.04890033	0.67061287	-0.06951771	-0.14668542	0.65168442	-0.08417841	4.84066861	1.16975883	0.03711725	-0.12057196	0.04328520
6603	66.02000000	-0.46878785	-0.13932835	-0.18809794	0.15500383	0.25299336	0.13957909	-0.04986450	0.26040784	4.67780736	0.79365355	-0.34324924	-0.02288482	0.10053920	-0.04963638	0.69356574	-0.07911518	-0.10810473	0.67016815	-0.08560193	5.01490104	1.30045702	0.04497878	-0.11659045	0.05174681
6604	66.03000000	-0.47822440	-0.14314261	-0.17679008	0.16576883	0.25939051	0.12072251	0.26025559	0.29414450	4.90901130	0.64888855	-0.44495140	-0.20705062	0.10514932	-0.04790591	0.71550241	-0.15338347	-0.10766339	0.65601453	-0.03665622	5.11565682	1.34372169	0.08559385	-0.11343577	0.05625662
6605	66.04000000	-0.48140204	-0.13783885	-0.19148384	0.15892426	0.23337524	0.10189625	0.60740135	0.29477009	5.14115148	0.48165596	-0.54624008	-0.40460100	0.11155545	-0.03471972	0.72772733	-0.19241921	-0.09343656	0.66145771	0.07939333	5.17237779	1.34724992	0.12028543	-0.11291831	0.07082854
6606	66.05000000	-0.47214371	-0.12773420	-0.20231419	0.14910989	0.17691644	0.09073877	1.09096292	0.37167372	5.31191717	0.27998597	-0.66592238	-0.58571807	0.08091875	-0.02985951	0.72100379	-0.24453233	-0.08215870	0.64948135	0.24409742	5.19596037	1.38004446	0.11368564	-0.11301521	0.09016909
6607	66.06000000	-0.47236407	-0.12048844	-0.20644733	0.14325893	0.12223353	0.08816407	1.42613136	0.55902449	5.24045517	0.03443145	-0.80641069	-0.76935093	0.08151150	-0.03845056	0.73947008	-0.29252179	-0.08489967	0.64745434	0.30634337	5.08769784	1.43962601	0.09978728	-0.11698407	0.10450805
6608	66.07000000	-0.45488859	-0.11188787	-0.20228167	0.14524321	0.07158677	0.07755172	1.28641143	0.81133460	4.95678771	-0.21325158	-0.96290957	-0.99009403	0.13437592	-0.03957101	0.77277918	-0.32287901	-0.10343892	0.66075820	0.17059216	4.82402497	1.53297291	0.10570575	-0.11645189	0.11973210
6609	66.08000000	-0.43431487	-0.08788472	-0.18475853	0.15104593	0.01156005	0.05501206	0.86282038	0.82927295	4.80573225	-0.38187114	-1.10473954	-1.24599513	0.25670983	-0.03422374	0.79044975	-0.25806668	-0.12099482	0.68437386	-0.14921341	4.47495646	1.63584883	0.08867843	-0.10850975	0.15415140
6610	66.09000000	-0.42039270	-0.05863810	-0.15802295	0.17950135	-0.05057289	0.02014344	0.08184251	0.47789307	4.78877437	-0.28531207	-1.15245700	-1.50641405	0.35505327	-0.05092109	0.77764963	-0.20530052	-0.09780807	0.68161701	-0.35453259	4.22906532	1.68742351	0.07755043	-0.09898592	0.19088995
6611	66.10000000	-0.39804164	-0.02492574	-0.14151132	0.21485424	-0.12068410	-0.01494081	-0.41846228	0.14835979	4.51831948	0.13287780	-1.01485128	-1.74337575	0.37413273	-0.04941906	0.82441711	-0.22267605	-0.13329131	0.66793100	-0.33206271	4.08197831	1.62079694	0.08376688	-0.12999159	0.21055892
6612	66.11000000	-0.36827201	-0.00735359	-0.11010734	0.23323398	-0.19249041	-0.02862852	-0.35128423	-0.11671242	3.99785683	0.73106731	-0.76543479	-1.85047650	0.29476790	-0.03596783	0.90954283	-0.20068889	-0.14319596	0.62484589	-0.42909176	3.84431572	1.40853875	0.07411626	-0.17862754	0.20903639
6613	66.12000000	-0.33500468	-0.01125390	-0.07726530	0.22273868	-0.23733058	-0.03042465	-0.39246592	-0.31894807	3.45499731	1.44995036	-0.38931065	-1.68264565	0.24391712	-0.01878590	0.98209023	-0.11516446	-0.07778081	0.57225477	-0.76063695	3.47292825	1.09384568	0.06784619	-0.24316810	0.20743736
6614	66.13000000	-0.29311254	-0.03588158	-0.05273518	0.17472146	-0.26955019	-0.00532431	-0.46871876	-0.36831054	2.86105862	1.92792634	-0.02694586	-1.22375152	0.23076904	-0.00766085	1.04981306	-0.06302438	-0.00848286	0.52273071	-1.24573413	2.98461215	0.76165267	0.06119898	-0.33041230	0.21695370
6615	66.14000000	-0.27595260	-0.04182035	-0.03830749	0.09607095	-0.27083482	0.03245848	-0.62204591	-0.43520437	2.14530506	1.84952716	0.00577390	-0.57733431	0.24000420	0.01345957	1.12362121	-0.07348655	0.00946107	0.50012805	-1.60646762	2.47185786	0.45199057	0.04874280	-0.42686463	0.23541012
6616	66.15000000	-0.27332246	-0.04752473	-0.02592457	0.01732573	-0.26452557	0.06029603	-1.07576967	-0.51512136	1.37733290	1.26398657	-0.33502620	0.02254430	0.16689517	0.01184558	1.20717618	-0.10542122	0.05470771	0.47925995	-1.49496596	2.04023370	0.21554454	0.05879120	-0.53280797	0.26341531
6617	66.16000000	-0.27184836	-0.06481768	-0.00885437	-0.03606209	-0.24321661	0.07126879	-1.35656178	-0.44760893	0.61355992	0.41858328	-0.63881508	0.43653690	0.18150984	0.03569313	1.29066274	-0.15125717	0.14095785	0.43864298	-1.19410497	1.44742793	-0.05206439	0.04495788	-0.62547966	0.29160333
6618	66.17000000	-0.28214824	-0.06391029	-0.00880352	-0.06825079	-0.18225388	0.07869300	-1.12871450	-0.31930073	-0.06724916	-0.43218236	-0.55492970	0.64458593	0.22992142	0.03466285	1.36256020	-0.19038782	0.16717566	0.39507938	0.55557706	0.78490510	-0.55351752	-0.02773140	-0.73806329	0.31719578
6619	66.18000000	-0.27148264	-0.05838827	-0.01801705	-0.08416480	-0.10219359	0.06220889	-0.77080308	-0.25102649	-0.70025432	-1.32229059	-0.21878474	0.75608252	0.29848177	0.05552681	1.41543892	-0.22834149	0.13310041	0.33602006	1.39678046	-0.13341107	-0.98388676	0.02084627	-0.89006922	0.34282957
6620	66.19000000	-0.24235270	-0.04026782	-0.04130082	-0.06176332	-0.07577688	0.01503481	-0.02629917	-0.22855133	-1.41216226	-2.33470549	0.03075667	0.85334749	0.32910846	0.04179399	1.48793633	-0.24496374	0.08703978	0.25402895	1.46625334	-0.98660294	-1.23451411	0.10356768	-1.07811186	0.39359972
6621	66.20000000	-0.20272366	0.00503709	-0.05356249	0.01668456	-0.12506731	-0.08706045	0.61382470	-0.29782417	-2.07999288	-3.29336262	-0.16061201	0.85792052	0.40481701	0.01335303	1.57276234	-0.19176576	0.03240266	0.16857233	1.17784901	-1.82667137	-1.11558444	0.13804552	-1.31649871	0.43489925
6622	66.21000000	-0.16633369	0.05029544	-0.06994092	0.12247148	-0.23105836	-0.21299043	1.18313330	-0.35040204	-2.35052730	-3.77562363	-0.54179251	0.60010154	0.44459567	-0.03006018	1.66492718	-0.08641729	0.00455864	0.09852801	-0.78368464	-3.27205914	-0.76450724	0.16759574	-1.66217049	0.51861786
6623	66.22000000	-0.13829268	0.08071977	-0.08504683	0.18091381	-0.28883628	-0.33118279	1.13906475	-0.29882197	-1.74846277	-2.60161410	-0.93228695	0.22641389	0.45210530	-0.06574832	1.74545507	0.04129738	-0.01757432	0.00189008	1.30130779	-1.64755432	-0.59524816	0.18677457	-2.11534571	0.63954429
6624	66.23000000	-0.11108529	0.09078689	-0.06592584	0.17002566	-0.24380949	-0.38050702	0.72302997	-0.21509529	-1.26499057	-1.05452419	-1.19190715	-0.13562182	0.43303586	-0.04651385	1.84487213	0.15040464	0.03360764	-0.12812998	1.94109803	-0.63754343	-0.47051762	0.27451109	-2.63031343	0.72094881
6625	66.24000000	-0.05062884	0.08190711	-0.03185576	0.10395632	-0.19477752	-0.29238622	1.12510040	0.27569606	-1.31939646	-0.24932574	-0.82434979	-0.34227198	0.36400708	-0.02712480	2.01877603	0.38355829	0.24297166	-0.23996741	0.45699176	-1.47055565	-0.47664217	0.44997437	-3.16033602	0.76673387
